# xmcd
#
# Track frame offsets:
#	150
#	13976
#	25923
#	38080
#	51090
#	77167
#	86687
#	99457
#	112388
#	128028
#	144514
#	158411
#
# Disc length: 2340 seconds
#
# Revision: 0
# Processed by: cddbd v1.5.1PL0 Copyright (c) Steve Scherf et al.
# Submitted via: dBpowerAMP V4.0
#
DISCID=9809220c
DTITLE=No Jacks - Unplugged Blues-Rock-Roots
DYEAR=2001
DGENRE=Blues
TTITLE0=Guitar Trouble
TTITLE1=Vagabond Boogie
TTITLE2=Baby what you want me to do
TTITLE3=Walking to my baby
TTITLE4=Fulltime lover
TTITLE5=This drinking will kill me
TTITLE6=Nice and Naughty
TTITLE7=Ain't that lovin' you baby
TTITLE8=I'm a rocker
TTITLE9=Memphis in the meantime
TTITLE10=Too late
TTITLE11=Boom bapa boom
EXTD=No Jacks, 04-06-2001, Unplugged Blues Rock Roots
EXTT0=
EXTT1=
EXTT2=
EXTT3=
EXTT4=
EXTT5=
EXTT6=
EXTT7=
EXTT8=
EXTT9=
EXTT10=
EXTT11=
PLAYORDER=
